<?xml version="1.0" standalone="no"?>
<!DOCTYPE svg PUBLIC "-//W3C//DTD SVG 1.1//EN" "http://www.w3.org/Graphics/SVG/1.1/DTD/svg11.dtd" >
<svg xmlns="http://www.w3.org/2000/svg">
<metadata>
Created by FontForge 20120731 at Thu Feb  9 14:43:48 2017
 By admin
</metadata>
<defs>
<font id="teemo" horiz-adv-x="1024" >
  <font-face 
    font-family="teemo"
    font-weight="500"
    font-stretch="normal"
    units-per-em="1024"
    panose-1="2 0 6 3 0 0 0 0 0 0"
    ascent="896"
    descent="-128"
    x-height="792"
    bbox="0 -212 1167.52 896"
    underline-thickness="0"
    underline-position="0"
    unicode-range="U+0078-E7FB"
  />
<missing-glyph 
 />
    <glyph glyph-name=".notdef" 
 />
    <glyph glyph-name=".notdef" 
 />
    <glyph glyph-name=".null" horiz-adv-x="0" 
 />
    <glyph glyph-name="nonmarkingreturn" horiz-adv-x="341" 
 />
    <glyph glyph-name="x" unicode="x" horiz-adv-x="1001" 
d="M281 543q-27 -1 -53 -1h-83q-18 0 -36.5 -6t-32.5 -18.5t-23 -32t-9 -45.5v-76h912v41q0 16 -0.5 30t-0.5 18q0 13 -5 29t-17 29.5t-31.5 22.5t-49.5 9h-133v-97h-438v97zM955 310v-52q0 -23 0.5 -52t0.5 -58t-10.5 -47.5t-26 -30t-33 -16t-31.5 -4.5q-14 -1 -29.5 -0.5
t-29.5 0.5h-32l-45 128h-439l-44 -128h-29h-34q-20 0 -45 1q-25 0 -41 9.5t-25.5 23t-13.5 29.5t-4 30v167h911zM163 247q-12 0 -21 -8.5t-9 -21.5t9 -21.5t21 -8.5q13 0 22 8.5t9 21.5t-9 21.5t-22 8.5zM316 123q-8 -26 -14 -48q-5 -19 -10.5 -37t-7.5 -25t-3 -15t1 -14.5
t9.5 -10.5t21.5 -4h37h67h81h80h64h36q23 0 34 12t2 38q-5 13 -9.5 30.5t-9.5 34.5q-5 19 -11 39h-368zM336 498v228q0 11 2.5 23t10 21.5t20.5 15.5t34 6h188q31 0 51.5 -14.5t20.5 -52.5v-227h-327z" />
    <glyph glyph-name="home" unicode="&#xe620;" 
d="M1024 222l-512 397l-512 -397v162l512 397l512 -397v-162zM896 236v-384h-256v256h-256v-256h-256v384l384 288z" />
    <glyph glyph-name="QQ" unicode="&#xe624;" 
d="M971 227l-2 18l-3 17l-3 9l-2 9l-3 9l-4 10l-3 10l-4 9l-8 16l-6 14l-7 13l-5 11l-7 11l-5 9l-10 15l-12 19l-3 5l-1 2v1l2 7l3 6l2 11l2 6v6v5v5v6l-1 4l-2 10l-2 9l-3 8l-3 8l-4 7l-3 7l-3 6l-6 9l-2 3v2l-3 18l-1 11l-2 14l-3 15l-4 17l-3 9l-2 8l-3 9l-3 10l-3 9
l-4 10l-8 19l-5 9l-6 10l-5 9l-6 10l-7 9l-7 9l-8 10l-8 8l-8 8l-9 9l-5 3l-5 4l-11 7l-12 8l-12 7l-13 7l-13 6l-13 6l-14 4l-15 4l-13 4l-15 3l-13 4l-15 1l-14 2l-15 2h-43l-14 -1l-28 -4l-13 -2l-14 -3l-13 -3l-13 -4l-12 -4l-12 -4l-12 -6l-12 -5l-10 -6l-10 -6l-10 -7
l-10 -8l-8 -7l-12 -12l-10 -11l-10 -10l-9 -11l-9 -11l-7 -10l-7 -11l-4 -5l-3 -6l-7 -10l-5 -10l-5 -10l-4 -10l-4 -9l-3 -9l-3 -9l-4 -8l-4 -16l-3 -15l-1 -12l-2 -11v-21l-3 -3l-3 -4l-2 -4l-2 -4l-2 -9l-3 -9v-7l-1 -6v-6l-6 -8l-4 -9l-3 -8l-2 -7l-2 -7l-2 -6v-17l1 -4
l2 -7l1 -6l-3 -3l-9 -6l-12 -11l-7 -7l-7 -6l-5 -5l-4 -5l-9 -9l-8 -10l-7 -8l-8 -11l-7 -11l-7 -12l-7 -11l-5 -11l-5 -11l-4 -10l-4 -11l-3 -11l-3 -11l-3 -10l-2 -10l-1 -9l-2 -10l-1 -18v-24l1 -7l2 -13l1 -6l2 -5l2 -6l1 -3l3 -7l2 -2l2 -3h1h2h7l7 2l7 3l6 4l6 4l5 5
l6 5l5 6l5 6l4 6l4 4l2 6l5 8l2 4l1 2v3l1 2h1l2 1h1v-1h1h1l3 -12l2 -10l4 -10l4 -9l4 -9l5 -8l4 -9l4 -7l5 -7l3 -6l10 -12l9 -11l8 -8l8 -7l7 -6l11 -10l4 -2l2 -2v-1l-1 -1h-1h-2l-8 -1l-7 -1l-6 -1l-7 -1l-5 -2l-6 -2l-5 -2l-4 -3l-5 -1l-3 -3l-3 -2l-4 -3l-4 -5l-2 -3
l-2 -2l-3 -6l-2 -5l-1 -5l-1 -4v-9l-1 -4v-4l-1 -4v-3l1 -4l1 -4l2 -7l2 -3l2 -3l2 -3l3 -3l3 -3l2 -3l7 -5l8 -4l8 -5l9 -3l9 -4l11 -2l10 -4l11 -2l12 -2l11 -2l12 -1l24 -3h24h43h11l9 1l9 1l8 1l13 2l9 3l9 2l17 7l8 3l7 3l12 7l10 6l8 5l6 5l16 -2l14 -1h12l4 -1l4 -1
l7 -3l8 -2l14 -5l15 -5l14 -4l14 -3l15 -4l15 -2l15 -2l14 -2l14 -1l15 -1h40l13 1l13 1l12 2l11 3l11 2l11 3l5 1l5 2l9 3l8 4l8 4l8 4l6 5l3 3l3 4l4 4l4 6l1 3l1 3l2 3l1 3v4l1 3l-1 5l-1 4l-2 5l-1 4l-3 5l-3 5l-3 3l-4 4l-9 7l-10 8l-10 5l-10 6l-23 12l-6 3l-2 2l-1 1
l12 11l5 6l4 5l8 12l7 11l6 11l6 10l8 20l7 16l4 12l2 4l2 3l2 2h1h1l6 -12l5 -12l4 -7l4 -5l4 -7l5 -7l4 -5l3 -2l2 -3l2 -1l3 -2l4 -2l3 -1h4l2 1l4 1l3 2l3 2l3 3l3 4l2 3l3 5l2 3l2 6l2 4l3 11l2 12l2 14l1 8v22z" />
    <glyph glyph-name="database" unicode="&#xe600;" 
d="M512 -212q-159 0 -271.5 56t-112.5 136v0v108q0 -52 52 -91.5t139 -60t193 -20.5t193 20.5t139 60t52 91.5v-108v0q0 -80 -112.5 -136t-271.5 -56zM512 -20q-159 0 -271.5 56t-112.5 136v108q0 -52 52 -91.5t139 -60t193 -20.5t193 20.5t139 60t52 91.5v-108
q0 -80 -112.5 -136t-271.5 -56zM512 172q-159 0 -271.5 56t-112.5 136v108q0 -52 52 -91.5t139 -60t193 -20.5t193 20.5t139 60t52 91.5v-108q0 -80 -112.5 -136t-271.5 -56zM512 364q-159 0 -271.5 56t-112.5 136v64q0 80 112.5 136t271.5 56t271.5 -56t112.5 -136v-64
q0 -80 -112.5 -136t-271.5 -56z" />
    <glyph glyph-name="gouxuan" unicode="&#xe616;" 
d="M510 748q-91 0 -174 -35.5t-143 -95.5t-95.5 -143t-35.5 -174t35.5 -174t95.5 -143t143 -95.5t174 -35.5t174 35.5t143 95.5t95.5 143t35.5 174t-35.5 174t-95.5 143t-143 95.5t-174 35.5zM729 424l-279 -280l-4 -4q-8 -9 -19.5 -9t-19.5 9l-139 138q-8 8 -8 20t8 20
t20 8t20 -8l118 -119l263 265q8 8 19.5 8t20 -8t8.5 -20t-8 -20z" />
    <glyph glyph-name="tianjia1" unicode="&#xe667;" 
d="M829 605q-64 63 -145.5 97t-171.5 34t-171.5 -34t-145.5 -97q-86 -86 -116.5 -201.5t0 -231t116.5 -201.5q64 -63 145.5 -97t171.5 -34t171.5 34t145.5 97q64 65 97.5 148.5t33.5 168.5t-33.5 168.5t-97.5 148.5zM784 16q-55 -54 -125 -83t-147 -29t-147 29t-125 83
q-73 74 -99.5 173t0 198t99.5 173q55 54 125 83t147 29t147 -29t125 -83q73 -74 99.5 -173t0 -198t-99.5 -173zM704 320h-160v160q0 13 -9.5 22.5t-22.5 9.5t-22.5 -9.5t-9.5 -22.5v-160h-160q-13 0 -22.5 -9.5t-9.5 -22.5t9.5 -22.5t22.5 -9.5h160v-160q0 -13 9.5 -22.5
t22.5 -9.5t22.5 9.5t9.5 22.5v160h160q13 0 22.5 9.5t9.5 22.5t-9.5 22.5t-22.5 9.5z" />
    <glyph glyph-name="guanbi" unicode="&#xe79a;" 
d="M604 384l305 305q19 19 19 46t-19 46t-46 19t-46 -19l-305 -305l-305 305q-19 19 -46 19t-46 -19t-19 -46t19 -46l305 -305l-305 -305q-19 -19 -19 -46t19 -46t46 -19t46 19l305 305l305 -305q19 -19 46 -19t46 19t19 46t-19 46z" />
    <glyph glyph-name="quxiao01" unicode="&#xe62a;" 
d="M928 273q0 -114 -56 -210t-152 -151.5t-209 -54.5q-114 1 -209.5 57t-151 151.5t-54.5 208.5q0 114 56.5 210t152 151t208.5 54q114 0 209.5 -56t151 -152t54.5 -208zM439 274l-9 -8q-62 -62 -104 -103q-17 -17 1 -35l39 -39q18 -18 37 0l54 54l48 48l7 7q7 -6 7 -7
l45.5 -45.5l57.5 -57.5q18 -17 35 0q8 8 39 38q19 20 0 39q-16 16 -50.5 50t-51.5 52q-1 0 -8 8l8 5l102 102q19 19 0 38l-38 38q-18 18 -37 -0.5t-53.5 -53l-49.5 -49.5l-7 -7l-6 7q-65 65 -103 104q-18 17 -35 0l-39 -39q-19 -19 0 -38l102 -102z" />
    <glyph glyph-name="iconfontcolor90" unicode="&#xe6cc;" 
d="M512 812q-104 0 -199 -40.5t-163.5 -109t-109 -163.5t-40.5 -199t40.5 -199t109 -163.5t163.5 -109t199 -40.5t199 40.5t163.5 109t109 163.5t40.5 199t-40.5 199t-109 163.5t-163.5 109t-199 40.5zM670.5 6.5q-9.5 -9.5 -22.5 -9.5t-23 9l-267 267l-4 4q-10 9 -10 23
q0 13 10 23l4 4l267 267q10 9 23 9t22.5 -9.5t9.5 -22.5t-9 -22l-249 -249l249 -249q9 -9 9 -22t-9.5 -22.5z" />
    <glyph glyph-name="fanhui" unicode="&#xe617;" 
d="M290 370l-55 -54q-7 -7 -7 -17.5t7 -17.5l454 -461q7 -7 17 -7t17 7l66 67q8 7 8 17t-7 17l-372 378l371 386q7 7 7 17t-7 17l-66 65q-7 8 -17 8t-17 -7z" />
    <glyph glyph-name="jian01" unicode="&#xe61a;" 
d="M0 812v-1024h1024v1024h-1024zM983 -171h-942v942h942v-942zM288 280h448q9 0 15 6t6 14t-6 14t-15 6h-448q-9 0 -15 -6t-6 -14t6 -14t15 -6z" />
    <glyph glyph-name="dianhua" unicode="&#xe669;" 
d="M512 -212q-139 0 -257 68.5t-186.5 186.5t-68.5 257t68.5 257t186.5 186.5t257 68.5t257 -68.5t186.5 -186.5t68.5 -257t-68.5 -257t-186.5 -186.5t-257 -68.5zM358 320l6 6q16 16 22.5 24.5t10.5 24.5t-5.5 36t-30.5 47q-12 14 -23.5 22.5t-20.5 13t-20 2.5t-17.5 -4
t-17 -10t-15 -12.5t-14.5 -15t-13 -13.5q-34 -34 4.5 -134.5t142.5 -204.5t204.5 -141.5t134.5 -3.5l13.5 13.5l15 15t12.5 14.5t10 17t3.5 17.5t-2.5 20t-13 21t-23 22.5q-27 22 -47 31t-35.5 5t-24.5 -10.5t-25 -23.5l-6 -6q-30 -31 -143.5 82t-82.5 144zM701 257
q-11 69 -61.5 119.5t-119.5 61.5q-16 2 -28 -9q-9 -10 -9 -23t9 -23q2 -2 4.5 -3.5t5 -2.5t4.5 -1.5t3 -1.5h1q51 -9 84.5 -43t43.5 -85q1 -10 9 -18q9 -9 22.5 -9t22.5 9q5 5 7.5 12.5t1.5 11.5v5zM721.5 458.5q-43.5 43.5 -93 67.5t-83 28t-62.5 0q-12 -2 -20 -9
q-9 -10 -9 -23t9 -23q5 -5 12.5 -7t11.5 -2l5 1q43 6 91.5 -14t93 -64.5t64 -93t13.5 -91.5q-3 -17 8 -29q10 -9 23.5 -9t22.5 9q3 3 5.5 8.5t3.5 8.5v3q5 29 0.5 62.5t-28.5 83.5t-67.5 93.5z" />
    <glyph glyph-name="xuanze" unicode="&#xe621;" 
d="M716 487l-300 -301l-134 135q-10 9 -23 9t-22.5 -9.5t-9.5 -22.5t10 -22l157 -158q10 -9 23 -9t22 9q2 2 4 5l318 319q9 9 9 22.5t-9.5 22.5t-22.5 9t-22 -9zM512 746q-91 0 -173.5 -35t-142.5 -95t-95 -142.5t-35 -173.5t35 -173.5t95 -142.5t142.5 -95t173.5 -35
t173.5 35t142.5 95t95 142.5t35 173.5t-35 173.5t-95 142.5t-142.5 95t-173.5 35zM512 -90q-106 0 -196 52t-142 142t-52 196t52 196t142 142t196 52t196 -52t142 -142t52 -196t-52 -196t-142 -142t-196 -52z" />
    <glyph glyph-name="gongneng" unicode="&#xe69b;" 
d="M776 -63h-528q-76 0 -129.5 53.5t-53.5 129.5v528q0 76 53.5 129.5t129.5 53.5h528q76 0 129.5 -53.5t53.5 -129.5v-528q0 -76 -53.5 -129.5t-129.5 -53.5zM248 789q-58 0 -99.5 -41.5t-41.5 -99.5v-528q0 -58 41.5 -99.5t99.5 -41.5h528q58 0 99.5 41.5t41.5 99.5v528
q0 58 -41.5 99.5t-99.5 41.5h-528zM161 691v0v0zM409 642q17 0 29 -12t12 -29v-165q0 -17 -12 -29t-29 -12h-165q-17 0 -29 12t-12 29v165q0 17 12 29t29 12h165zM409 312q17 0 29 -11.5t12 -28.5v-166q0 -17 -12 -29t-29 -12h-165q-17 0 -29 12t-12 29v166q0 17 12 28.5
t29 11.5h165zM739 312q17 0 28.5 -11.5t11.5 -28.5v-166q0 -17 -11.5 -29t-28.5 -12h-165q-17 0 -29.5 12t-12.5 29v166q0 17 12.5 28.5t29.5 11.5h165v0zM830 569q13 -13 13 -30.5t-13 -30.5l-122 -122q-14 -14 -31 -14t-31 14l-122 122q-13 13 -13 30.5t13 30.5l122 123
q14 12 31 12t31 -12z" />
    <glyph glyph-name="lifangtilitiduomiantifangkuai2" unicode="&#xe7fb;" 
d="M838 571l-284 -154q-19 -11 -30.5 -30.5t-11.5 -43.5v-298q0 -24 19 -37t39 -2l284 155q19 10 30.5 30t11.5 43v298q0 24 -19 36.5t-39 2.5zM406 417l-284 154q-20 10 -39 -2.5t-19 -36.5v-299q0 -24 11.5 -43.5t30.5 -30.5l284 -153q20 -11 39 2t19 37v299
q0 23 -11.5 43t-30.5 30zM812 641q21 11 19 30q2 20 -19 31l-289 151q-19 10 -44 10t-43 -10l-289 -150q-20 -11 -19 -31q-1 -21 19 -31l289 -151q18 -10 43 -10t44 10z" />
    <glyph glyph-name="jia" unicode="&#xe630;" 
d="M0 896v-1024h1024v1024h-1024zM983 -87h-942v942h942v-942zM288 364h204v-204q0 -9 6 -15t14 -6t14 6t6 15v204h204q9 0 15 6t6 14t-6 14t-15 6h-204v204q0 9 -6 15t-14 6t-14 -6t-6 -15v-204h-204q-9 0 -15 -6t-6 -14t6 -14t15 -6z" />
    <glyph glyph-name="yunpan1" unicode="&#xe618;" horiz-adv-x="1027" 
d="M856 540q-41 104 -133 169t-208 65q-115 0 -208.5 -65t-134.5 -169q-74 -21 -122 -84.5t-48 -142.5q0 -90 61 -157.5t150 -77.5h108v-86h336l50 50v36h110q90 11 149.5 78t59.5 157q0 80 -47.5 142.5t-122.5 84.5zM556 49h-37v84h37v-84zM650 66l-17 -17h-20v118h-197
v-118h-38v271h272v-254zM828 160h-121v218h-386v-218h-127q-51 11 -85 52t-34 94q0 73 49 112q9 8 12 9l9 9h3q1 2 4 3t4 3h4q1 1 4 2.5l5 2.5h5q2 0 5 2t4 2q1 -1 2 0q1 0 4 2h6q6 0 8 3h7h14h6q0 7 6 27v6l9 17v6l9 18l1 2l1 1t1 3l8 17q38 63 103.5 100.5t143.5 37.5
q75 0 140.5 -37.5t102.5 -100.5q2 -3 6.5 -8.5t5.5 -8.5v-6l9 -18q0 -1 1.5 -2.5t1.5 -3.5q1 -3 2.5 -8.5t3.5 -8.5q0 -6 3 -6q0 -5 5 -27h4h14h6q3 -3 9 -3h9q0 -2 5 -2q2 0 5 -2t4 -2h4q1 -1 4 -2.5t4 -2.5h3q2 -2 6 -3t6 -3q8 -6 11 -9l9 -9q53 -42 53 -112
q0 -54 -34.5 -94.5t-86.5 -51.5z" />
    <glyph glyph-name="jiantou2" unicode="&#xe602;" 
d="M801 351l-512 -466q-13 -13 -30.5 -13t-30 12.5t-12.5 30t12 30.5l481 438l-481 438q-12 13 -12 30.5t12.5 30.5t30 13t30.5 -13l512 -466q13 -14 12 -33q1 -19 -12 -32v0z" />
    <glyph glyph-name="yunshangchuan" unicode="&#xe619;" 
d="M64 364q0 69 42.5 124.5t106.5 73.5q36 91 118 148t183 57q102 0 182.5 -56.5t116.5 -148.5q66 -19 107.5 -74t41.5 -124q0 -87 -61 -147.5t-149 -60.5q-17 0 -29.5 12.5t-12.5 28.5q0 19 12.5 30.5t29.5 11.5q53 0 90 36.5t37 88.5q0 58 -44 93l-8 7q-2 3 -9 7
q-1 2 -5 3t-5 2h-3q-1 2 -3.5 3t-3.5 2h-2q-1 0 -3.5 1.5t-4.5 1.5q-5 0 -5 2h-7q-4 0 -7 3h-20q-5 18 -5 22q-2 0 -2 4q-1 3 -2.5 8t-2.5 7q0 1 -1 2.5t-1 2.5q-3 5 -8 15v5q-1 2 -4.5 7t-5.5 7q-31 52 -85.5 83.5t-117.5 31.5q-65 0 -119.5 -31t-85.5 -84l-7 -14
q0 -1 -1 -2t-1 -2l-1 -1l-7 -15v-5l-7 -15v-4q-6 -17 -6 -22h-22q-2 -3 -7 -3h-4q-3 -2 -4 -2q-1 -1 -2 0q-1 0 -3.5 -1.5t-3.5 -1.5h-5q-1 -1 -3.5 -2t-3.5 -3h-3q-1 -1 -3.5 -2t-3.5 -3h-2q-1 0 -8 -7q-2 -1 -10 -7q-41 -33 -41 -93q0 -52 36.5 -88.5t87.5 -36.5
q20 0 32 -11.5t12 -30.5q0 -16 -12.5 -28.5t-31.5 -12.5q-86 0 -148 61t-62 147v0v0zM346 224q0 14 9 30l128 139q12 12 31 12q17 0 32 -12l125 -139q12 -13 12 -30t-12.5 -29t-31.5 -12q-15 0 -29 14l-54 59v-210q0 -19 -12 -30.5t-30 -11.5t-29.5 11.5t-11.5 30.5v210
l-54 -59q-14 -14 -32 -14q-16 0 -28.5 12.5t-12.5 28.5z" />
    <glyph glyph-name="renwu" unicode="&#xe61c;" horiz-adv-x="1076" 
d="M854 830h-639q-57 0 -98 -41.5t-41 -98.5v-608q0 -57 41 -98t98 -41h639q57 0 98.5 41t41.5 98v608q0 58 -40 99t-100 41zM926 78q0 -30 -21 -51t-51 -21h-639q-30 0 -51 21t-21 51v612q0 30 21 51t51 21h639q30 0 51 -21t21 -51v-612zM413 609l-99 -99l-45 45
q-10 10 -24 10t-21 -10q-10 -10 -10 -24t10 -21l72 -72q9 -9 27 -9q6 0 9.5 1t8 3.5t9.5 4.5l122 122q10 10 10 24t-10 20q-38 19 -59 5zM827 555h-311q-31 0 -31 -31.5t31 -31.5h311q31 0 31 32q0 13 -9 22t-22 9zM332 352q-44 0 -74 -29.5t-30 -73.5t30 -73.5t74 -29.5
t74 29.5t30 73.5q0 46 -31 74.5t-73 28.5zM332 218q-17 0 -26.5 9.5t-9.5 26t9.5 26.5t26.5 10t26.5 -10t9.5 -26q0 -17 -11 -26.5t-25 -9.5zM827 285h-311q-31 0 -31 -31q0 -14 9 -23t22 -9h311q31 0 31 32q0 13 -9 22t-22 9z" />
    <glyph glyph-name="coupon" unicode="&#xe601;" 
d="M926 493q11 6 16.5 13t6.5 12.5t1 16.5v126q0 26 -21.5 44.5t-51.5 18.5h-730q-30 0 -51.5 -18.5t-21.5 -44.5v-126q0 -17 4.5 -26t19.5 -16q30 -12 51.5 -33.5t21.5 -50.5q0 -64 -71 -84q-26 -14 -26 -42v-127q0 -26 21.5 -44.5t51.5 -18.5h730q30 0 51.5 18.5
t21.5 44.5v127q0 16 -5 24t-19 18q-41 18 -57 36t-16 47.5t15.5 47.5t57.5 37v0zM901 290v-113q0 -17 -14 -29.5t-34 -12.5h-682q-20 0 -34 12.5t-14 29.5v113q43 13 70 45.5t27 73t-27 73t-70 45.5v113q0 17 14 29.5t34 12.5h682q20 0 34 -12.5t14 -29.5v-113
q-43 -13 -70 -45.5t-27 -73t27 -73t70 -45.5v0zM646 451h-92l100 92q8 8 0 15l-16 15q-8 7 -16 0l-110 -103l-111 103q-8 7 -15 0l-16 -15q-8 -7 0 -15l100 -92h-92q-5 0 -8.5 -3.5t-3.5 -7.5v-21q0 -4 3.5 -7t8.5 -3h110v-42h-110q-5 0 -8.5 -3.5t-3.5 -7.5v-21
q0 -4 3.5 -7t8.5 -3h110v-74q0 -4 3.5 -7.5t8.5 -3.5h24q5 0 8.5 3.5t3.5 7.5v74h110q5 0 8.5 3t3.5 7v21q0 4 -3.5 7.5t-8.5 3.5h-110v42h110q5 0 8.5 3t3.5 7v21q0 4 -3.5 7.5t-8.5 3.5v0zM646 451z" />
    <glyph glyph-name="tianjia" unicode="&#xe603;" 
d="M900 12h-20v-24h45v45h-25v-21zM615 12h66v-24h-66v24zM482 12h67v-24h-67v24zM747 12h67v-24h-67v24zM350 12h66v-24h-66v24zM217 12h67v-24h-67v24zM131 33h-25v-45h45v24h-20v21zM106 430h25v-66h-25v66zM106 563h25v-66h-25v66zM106 166h25v-67h-25v67zM106 695h25
v-66h-25v66zM106 298h25v-66h-25v66zM106 762h25v20h20v25h-45v-45zM482 807h67v-25h-67v25zM350 807h66v-25h-66v25zM615 807h66v-25h-66v25zM217 807h67v-25h-67v25zM747 807h67v-25h-67v25zM880 807v-25h20v-20h25v45h-45zM900 298h25v-66h-25v66zM900 430h25v-66h-25v66
zM900 563h25v-66h-25v66zM900 695h25v-66h-25v66zM900 166h25v-67h-25v67zM546 604h-61v-176h-177v-61h177v-177h61v177h177v61h-177v176z" />
    <glyph glyph-name="quesheng" unicode="&#xe604;" 
d="M200 590h43q5 0 5 5.5t-5 5.5h-43q-10 0 -16.5 6.5t-6.5 16.5t7 16.5t16 6.5h5q5 -2 7 3q4 12 13.5 19.5t22.5 7.5q23 0 33 -20q2 -2 4 -3t4 1q8 5 17 5q12 0 20.5 -8t8.5 -20q1 -2 2 -3q2 -2 4 -2h1q1 1 2 1q5 0 9 -4t4 -9.5t-4 -9.5t-9 -4h-27q-5 0 -5 -5.5t5 -5.5h27
q7 0 14 5q1 -2 3 -2h31q4 0 4 4.5t-4 4.5h-27q3 6 3 12q0 9 -6.5 16t-16.5 8q-2 14 -13.5 23.5t-25.5 9.5q-10 0 -18 -5q-15 21 -40 21q-32 0 -45 -29h-3q-14 0 -24 -10t-10 -24t10 -24t24 -10zM854 84h-160q0 2 -1 4q-6 12 -2 19q6 13 43 20q15 3 21 13q7 12 0 30v0
q11 1 18.5 9t7.5 19v291q0 11 -8 19.5t-20 8.5h-435q-12 0 -20 -8.5t-8 -19.5v-291q0 -11 8 -19.5t20 -8.5h18v0v0q-7 -18 0 -30q6 -10 21 -13q37 -7 43 -20q4 -7 -2 -19q-1 -2 -1 -4h-190q-6 0 -6 -6t6 -6h647q6 0 6 6t-6 6zM318 183q-7 0 -11.5 4.5t-4.5 10.5v291
q0 6 4.5 11t11.5 5h435q7 0 11.5 -5t4.5 -11v-291q0 -6 -4.5 -10.5t-11.5 -4.5h-7q-13 10 -33 13q-5 1 -12 1q-30 0 -59 -14h-193q-29 14 -59 14q-8 0 -12 -1q-20 -3 -33 -13h-27v0zM529 94l8 7l-8 -4q-1 2 -1 4q-11 35 -59 69h153q-48 -34 -59 -69q-1 -2 -1 -5l-6 3l6 -5
q-1 -6 2 -10h-37q2 4 2 10zM574 85l3 -1h-4zM518 84h-4l3 2zM583 84l-8 6v1q-2 2 0 6q10 32 55 64q33 24 71 24q6 0 10 -1h1q25 -4 32 -18q4 -13 0 -20q-3 -5 -12 -7v0q-43 -8 -52 -26q-6 -13 2 -29h-99v0zM411 113q-9 18 -52 26v0q-9 2 -12 7q-4 7 0 20q8 16 32 18h1
q2 1 9 1q39 0 72 -24q45 -32 55 -63q2 -5 0 -7l-8 -7h-99q8 16 2 29zM888 84h-15q-6 0 -6 -6t6 -6h15q6 0 6 6t-6 6zM188 84h-14q-3 0 -5 -1.5t-2 -4.5q0 -6 7 -6h14q6 0 6 6t-6 6zM81 567h153q5 0 5 5t-5 5h-153q-5 0 -5 -5t5 -5zM302 548l1 -1q1 -1 3 -1h2q4 0 4 4.5
t-4 4.5h-2q-2 0 -4 -2q-1 2 -3 2h-134q-5 0 -5 -4.5t5 -4.5h134q2 0 3 2zM271 146q-3 0 -4 -2q-1 2 -4 2h-153q-5 0 -5 -4.5t5 -4.5h153q3 0 4 2q0 -1 1 -1q1 -1 3 -1h2q5 0 5 4.5t-5 4.5h-2zM973 281q-1 0 -2 -2q-2 2 -3 2h-75q-5 0 -5 -5q0 -2 1.5 -3.5t3.5 -1.5h75
q1 0 3 1q1 -1 2 -1q5 0 5 4v1q0 5 -5 5zM939 260q-3 0 -4 -3q-1 3 -4 3h-75q-5 0 -5 -4.5t5 -4.5h75q3 0 4 3q1 -3 4 -3q4 0 4 4v1q0 4 -4 4zM185 127q1 -2 4 -2v0q5 0 5 5t-5 5v0q-3 0 -4 -2q-2 2 -4 2h-120q-5 0 -5 -5q0 -2 1.5 -3.5t3.5 -1.5h120q2 0 4 2zM404 593h5
q5 0 5 4.5t-5 4.5h-5q-4 0 -4 -4.5t4 -4.5zM729 644q8 -3 13 -15q1 -4 5 -5h2q2 0 4 2q7 5 15 5h2h1q4 0 4 4q0 5 -4 5q-2 1 -4 1q-10 0 -18 -6q-6 14 -17 18q-5 1 -6 -3q-1 -2 0 -3.5t3 -2.5zM751 663q8 -3 12 -15q2 -3 5 -4h2q2 0 4 2q6 5 13 5h3v0q4 0 5 4q0 4 -4 4
q-2 1 -4 1q-9 0 -16 -6q-7 14 -17 17q-4 1 -5 -3q-1 -1 0 -3t2 -2zM504 397h7q6 1 5 7q-1 5 -6 5h-1h-5q-14 0 -31 8.5t-24.5 14t-10.5 9.5q-5 4 -9 -0.5t0.5 -8.5t12 -10t27 -15.5t35.5 -9.5zM555 397h6q17 0 36 9t27.5 16t11.5 10q2 2 2 4.5t-2 3.5q-4 5 -9 1
q-3 -3 -10.5 -9t-24.5 -14.5t-31 -8.5h-5q-6 1 -6.5 -5t5.5 -7zM445 378q0 6 -6 6h-96q-6 0 -6 -6t6 -6h96q2 0 4 2t2 4zM628 378q0 -6 6 -6h95q6 0 6 6t-6 6h-95q-6 0 -6 -6zM473 226q-1 -2 1 -5q2 -5 8 -2l49 23l50 -23q1 -1 2 -1q4 0 6 3q1 3 0 5t-3 4l-53 24q-3 1 -5 0
l-52 -24q-2 -2 -3 -4z" />
    <glyph glyph-name="renzhengshejishi" unicode="&#xe605;" 
d="M514.5 739q-97.5 0 -180.5 -48t-131 -131t-48 -180.5t48 -180t131 -131t180.5 -48.5t180.5 48.5t131 131t48 180t-48 180.5t-131 131t-180.5 48zM750 521q-20 -109 -122 -226q-39 -44 -78 -77.5t-63 -48.5q-9 -5 -18 -5q-14 0 -28.5 12.5t-22.5 28.5v0q-9 18 -46 137
q-30 95 -42 127.5t-22 43.5q-12 14 -31 18q61 53 98 60q2 1 4 1q4 0 6 -2q6 -6 12 -19q10 -24 21 -90q7 -43 12 -62q9 -34 13.5 -50.5t13 -40t16.5 -33.5t20 -17.5t27 -7.5q33 0 68 44q25 31 54 84q17 31 18.5 62t-12.5 54q-16 27 -45 36q9 10 20 18q36 28 78 28
q28 0 41 -15q16 -19 8 -60z" />
    <glyph glyph-name="shezhi" unicode="&#xe606;" 
d="M943 466q-4 21 -15.5 33t-26.5 12h-4q-45 0 -76.5 31.5t-31.5 76.5q0 18 9 41q8 17 2.5 36.5t-21.5 31.5l-110 61l-1 1q-11 4 -23 4q-27 0 -44 -18q-15 -15 -40 -31t-45.5 -16t-46 16.5t-39.5 31.5q-17 18 -45 18q-12 0 -22 -4l-114 -62l-2 -1q-16 -12 -21.5 -31.5
t2.5 -36.5q10 -20 10 -41q0 -45 -31.5 -76.5t-76.5 -31.5h-4q-16 0 -27.5 -12t-14.5 -33q-10 -48 -10 -86q0 -37 10 -86q3 -20 14.5 -32t27.5 -12h4q45 0 76.5 -31.5t31.5 -76.5q0 -21 -10 -41q-8 -18 -2.5 -37.5t21.5 -30.5l109 -61h1q10 -5 23 -5q27 0 44 19
q16 17 41.5 34t45.5 17q22 0 47.5 -18t40.5 -34q17 -19 44 -19q12 0 23 5l112 61l1 1q16 11 21.5 30.5t-2.5 37.5q-9 21 -9 41q0 45 31.5 76.5t76.5 31.5h4q15 0 26.5 12t15.5 32q9 45 9 86q0 40 -9 86zM380 29l-93 52q12 33 12 61q0 67 -45 115.5t-111 53.5q-7 42 -7 69.5
t7 69.5q66 5 111 53.5t45 114.5q0 29 -12 61l99 55v0q17 -17 38 -32q49 -35 92 -35q42 0 90 34q22 15 38 32v0l96 -54q-12 -32 -12 -61q0 -66 45 -114.5t111 -53.5q7 -42 7 -69.5t-7 -69.5q-66 -5 -111 -53.5t-45 -115.5q0 -28 12 -61l-97 -53q-17 17 -38 33q-50 37 -94 37
t-93 -36q-21 -16 -38 -33zM667 381q0 64 -45.5 109.5t-110 45.5t-110 -45.5t-45.5 -109.5t45.5 -109.5t110 -45.5t110 45.5t45.5 109.5zM511.5 475q38.5 0 66 -27.5t27.5 -66.5t-27.5 -66.5t-66 -27.5t-66.5 27.5t-28 66.5t28 66.5t66.5 27.5z" />
    <glyph glyph-name="xiaoxi" unicode="&#xe607;" 
d="M616.5 135q-14.5 0 -25 -10t-10.5 -25q0 -9 -2 -18q-6 -20 -22.5 -31.5t-36.5 -11.5t-36.5 12t-22.5 32q-2 8 -2 17q0 15 -10.5 25t-25 10t-24.5 -10t-10 -25q0 -19 5 -37q12 -41 47 -68q35 -26 79 -26t78 26q35 25 47 65q6 20 6 40q0 15 -10 25t-24.5 10zM806 287h-29
q-20 6 -20 27v230h-1q-9 76 -60.5 133t-126.5 73q-1 20 -15.5 34t-34.5 14t-34.5 -14t-15.5 -34q-75 -16 -127 -73t-60 -133h-2v-231q0 -20 -20 -26h-31q-29 0 -50 -21t-21 -51t21 -51t50 -21h577q30 0 51 21t21 51t-21 51t-51 21zM352 513q0 68 43 119q43 50 106 57l18 2
l17 -2q63 -7 106 -57q43 -51 43 -119v-23v-175q0 -29 17.5 -51.5t44.5 -28.5l2 -1h33q6 0 10 -4.5t4 -10.5t-4 -10.5t-10 -4.5h-528q-6 0 -10 4.5t-4 10.5t4 10.5t10 4.5h33l3 1q27 5 44 27t18 51v172v0v28z" />
    <glyph glyph-name="wodefensi" unicode="&#xe608;" 
d="M382 245v-0.5v-0.5v1zM203 56v0q0 23 4 38q7 30 27 55q17 23 44 40q11 8 37.5 22t47.5 24.5t19 9.5q83 45 52 128q0 2 -12.5 34.5t-15.5 41.5q-20 57 -31 124q-9 56 28 94.5t104 38.5q73 0 111.5 -37t31.5 -98q-8 -67 -31 -114l-1.5 -3.5t-4.5 -9.5t-7 -13.5t-8.5 -16
t-8.5 -17t-8 -16.5t-6 -13l79 -36q3 7 8.5 18t11 22.5t11 22t9 17.5l3.5 7q30 61 39 142q11 101 -54 166.5t-175 65.5q-106 0 -169.5 -69t-48.5 -165q12 -74 36 -140q3 -8 15.5 -41.5t12.5 -34.5q4 -11 3 -13t-16 -10q-6 -3 -19 -10q-15 -6 -27 -12q-36 -18 -64 -36
q-38 -25 -65 -60q-48 -63 -49 -129v-99h503l-70 82h-346v0zM913 213q-1 16 -8.5 31.5t-12 20.5t-7.5 8q-30 25 -63 25q-44 0 -83 -40q-39 40 -83 40q-33 0 -62 -25q-26 -23 -28 -60q-2 -43 37 -85l136 -146l137 146q39 42 37 85zM815 149l-76 -81l-75 81q-21 22 -20 43
q0 8 3.5 15t5.5 10l3 3q15 12 30 12q12 0 24 -7t17 -12t6 -7l6 -8l6 8q2 2 6.5 7t17 12t23.5 7q16 0 30 -12q12 -10 12 -28q1 -21 -19 -43z" />
    <glyph glyph-name="woguanzhude" unicode="&#xe609;" 
d="M712 22q-6 -7 -15 -7t-16 6l-133 131q-7 6 -7 15.5t7 15.5l37 35q6 6 15 6t16 -6l83 -78l199 211q6 6 15 6t16 -6l33 -34q7 -7 7 -16t-7 -15zM151 54q1 26 4 37q8 30 27 55q18 24 44 41q39 25 105 55q83 45 52 129l-12.5 33.5t-15.5 41.5q-21 57 -31 124q-9 56 28 95
t103 39q73 0 112 -37t32 -99q-8 -66 -31 -114l-45 -89l79 -36q3 7 9 18.5t11.5 23t11 22t9 17t3.5 7.5q29 60 39 141q11 102 -54 167t-176 65q-106 0 -169 -69t-48 -165q12 -74 35 -139q3 -9 16 -42.5t13 -34.5q4 -10 3 -12t-16 -10q-7 -4 -20 -10l-26 -13q-36 -18 -64 -36
q-39 -25 -65 -60q-48 -63 -49 -128v-100h503l-70 83h-347v0z" />
    <glyph glyph-name="anonymous-iconfont" unicode="&#xe60a;" 
d="M658.5 257q-3.5 -15 -3.5 -27q0 -35 26 -35t53 23.5t49.5 60t36.5 82t14 89.5q0 66 -25 119t-67 90.5t-95.5 57.5t-112.5 20q-71 0 -132.5 -28.5t-107 -77.5t-71.5 -113t-26 -137q0 -75 27 -139t74 -111.5t109 -74.5t132 -27q80 0 154 36.5t121 97.5h70q-26 -46 -64 -82
t-83 -61t-96 -38t-104 -13q-87 0 -163 32t-132 88t-88.5 132t-32.5 165q0 86 33 160.5t89 130.5t130.5 88.5t159.5 32.5q76 0 145 -25.5t120.5 -70.5t81.5 -108t30 -138q0 -72 -26 -131.5t-65 -101.5t-84.5 -65.5t-84.5 -23.5q-29 0 -48.5 18t-22.5 54h-3q-26 -28 -61.5 -51
t-76.5 -23q-35 0 -64.5 14t-50 37t-32 55.5t-11.5 68.5q0 58 19 114.5t52.5 101t82 72t106.5 27.5q39 0 72.5 -20.5t52.5 -70.5l25 70h70l-93 -315q-5 -14 -8.5 -29zM469 524.5q-33 -22.5 -56 -57t-36.5 -75t-13.5 -77.5q0 -46 26.5 -76.5t68.5 -30.5q37 0 68 23.5
t54.5 59.5t36.5 77t13 76q0 20 -7 38.5t-20 32.5t-29 23t-34 9q-38 0 -71 -22.5z" />
    <glyph glyph-name="youhuiquan" unicode="&#xe60b;" 
d="M549 392h92h9q10 2 16 11t4 19q-4 21 -27 21h-84h-5q0 1 -0.5 1.5l-0.5 0.5l4 3l74 74l32 32q10 11 6.5 25t-18 18t-26.5 -8l-57.5 -57.5t-46.5 -47.5q-1 0 -4 -4l-1 -0.5l-1 -0.5l-3 5q-34 34 -104 103q-3 4 -5 6q-9 7 -20.5 4.5t-17.5 -12.5q-10 -17 5 -32l59 -59
l46 -46l4 -5h-7h-83q-11 0 -18.5 -6.5t-8.5 -16.5q-2 -12 6 -20t21 -8h95h6v-52h-6h-96q-11 0 -18 -6q-13 -12 -7 -29t24 -17h97h6v-6v-95q0 -14 9 -21q13 -11 27 -4q16 6 16 23v96v7h6h95q7 0 13 3q8 4 12 12t2 16q-4 21 -25 21h-96h-7v52h7zM923 608v0v6q0 35 -23 58
t-57 23h-476v0h-182q-35 0 -58 -23t-23 -58v-47v0v-27.5v-29.5v-14q0 -38 37 -53q1 -1 25 -13q-1 -1 -1 -2q7 -9 8 -9q18 -27 8.5 -57t-40.5 -41q-37 -14 -37 -54v-28v0v-12v-4v-4v0v-70q0 -35 23 -57.5t57 -23.5h65h89v0h247h3q11 0 19 8t8 19q0 10 -8 18t-18 8v0h-1v0h-1
h-46h-126v0h-228q-30 0 -30 31v67v0v47q-1 4 4 6q55 22 71 78.5t-20 103.5q-20 26 -51 37q-5 2 -4 7v69v0v23.5v22.5q0 29 29 29h181h475q29 0 29 -29v-22.5v-23.5v0v-69t-5 -6q-54 -21 -71 -76t17 -102q0 -1 12 -16q18 -17 43 -26q4 -2 4 -6v-13v0v-10v-31v0v-62
q0 -14 -7.5 -21.5t-21.5 -7.5h-35v0v0h-1v0q-11 0 -18.5 -8t-7.5 -18.5t8 -18.5t19 -8h3h33q34 1 57 23.5t23 57.5v63v0v33v8v0v14q0 39 -37 54q-14 5 -23 13q-27 25 -19.5 60.5t42.5 48.5q37 14 37 53v71v0v33v8z" />
    <glyph glyph-name="shouhuodizhi" unicode="&#xe60c;" 
d="M810 484q0 -57 -34 -126q-36 -75 -109 -163q-59 -71 -126 -134q-23 -21 -46 0q-139 124 -214 252q-14 24 -25 49q-5 11 -1 22.5t15 16.5t22.5 1t16.5 -16q42 -91 138 -196q30 -33 66 -66q5 -5 8 -1q136 136 197 250q27 49 32 88q9 69 -26 134q-66 123 -200 127
q-77 3 -140 -42t-87 -119q-12 -38 -13 -76q0 -14 -8.5 -23t-21 -9t-20.5 9t-8 23q0 104 64.5 185t165.5 104q83 20 165 -12t133 -103q55 -78 56 -175zM188 21h658q0 2 -4 9q-43 76 -86 151q-9 16 1 32q9 14 26 13q16 -1 23 -15q84 -145 117 -205q9 -15 0 -29t-28 -14h-393
q-308 0 -359 -1q-20 0 -29.5 15.5t1.5 33.5q10 18 113 197q13 22 34 17q14 -4 19.5 -17t-2.5 -27q-1 -3 -60 -106q-6 -10 -16 -28t-15 -26zM635 489q0 -49 -34.5 -83t-82.5 -34q-49 0 -83 34.5t-34 82.5t34.5 82.5t82.5 34.5q49 0 83 -34.5t34 -82.5zM518 547q-24 0 -41 -17
t-17 -41q-1 -24 16.5 -41.5t42.5 -17.5q24 1 41 18t16.5 41t-17.5 41t-41 17z" />
    <glyph glyph-name="shanchu" unicode="&#xe60d;" 
d="M832 537q-13 0 -22 -9.5t-9 -22.5v-409q0 -26 -18.5 -44.5t-44.5 -18.5h-441q-26 0 -44.5 18.5t-18.5 44.5v409q0 13 -9.5 22.5t-22.5 9.5t-22 -9.5t-9 -22.5v-409q0 -52 36.5 -89t89.5 -37h441q52 0 89 37t37 89v409q0 13 -9.5 22.5t-22.5 9.5zM391 159v346
q0 13 -9 22.5t-22 9.5t-22.5 -9.5t-9.5 -22.5v-346q0 -13 9.5 -22.5t22.5 -9.5t22 9.5t9 22.5zM895 663h-252v94q0 14 -9 23t-22 9h-189q-13 0 -22.5 -9t-9.5 -23v-94h-252q-13 0 -22 -9t-9 -22.5t9 -22.5t22 -9h756q13 0 22.5 9t9.5 22.5t-9.5 22.5t-22.5 9zM580 663h-126
v63h126v-63zM706 159v346q0 13 -9 22.5t-22 9.5t-22.5 -9.5t-9.5 -22.5v-346q0 -13 9.5 -22.5t22.5 -9.5t22 9.5t9 22.5zM549 159v346q0 13 -9.5 22.5t-22.5 9.5t-22 -9.5t-9 -22.5v-346q0 -13 9 -22.5t22 -9.5t22.5 9.5t9.5 22.5z" />
    <glyph glyph-name="quanzidingwei" unicode="&#xe60e;" 
d="M665 226q142 171 142 275q0 123 -85.5 210.5t-206.5 87.5t-206.5 -87t-85.5 -209q0 -105 143 -277q-93 -14 -143.5 -47t-50.5 -80q0 -41 51.5 -72.5t128.5 -46.5t163 -15t162.5 14.5t130 46.5t55.5 73q0 47 -51.5 80t-146.5 47zM515 741q97 0 165.5 -70t68.5 -168
q0 -64 -73.5 -166t-160.5 -186q-52 52 -101 109.5t-91 127.5t-42 115q0 98 68.5 168t165.5 70zM493 90l1 -1l1 -1l20 -20l19 17l1 1q1 1 3 2q41 40 79 82q44 -5 77.5 -12.5t51.5 -14.5t29.5 -15.5t15 -15t3.5 -13.5q0 -30 -69 -51q-77 -23 -208 -23q-69 0 -123.5 6.5t-87 17
t-49.5 23.5t-17 27q0 24 46 42.5t129 28.5q38 -41 78 -80zM515 387q52 0 88.5 36.5t36.5 89.5t-36.5 89.5t-88.5 36.5q-51 0 -87.5 -37t-36.5 -89q0 -53 36 -89.5t88 -36.5zM515 581q28 0 47 -19.5t19 -48.5q0 -28 -19.5 -48t-46.5 -20t-46.5 20t-19.5 48t19.5 48t46.5 20z
" />
    <glyph glyph-name="jianpan" unicode="&#xe60f;" 
d="M865 790h-701q-61 0 -104.5 -44t-43.5 -105v-522q0 -61 43.5 -105t104.5 -44h701q61 0 104.5 44t43.5 105v522q0 61 -43.5 105t-104.5 44zM954 110q0 -18 -28.5 -47.5t-59.5 -29.5h-703q-35 0 -61.5 26.5t-26.5 61.5v518q0 35 26.5 61.5t61.5 26.5h703q35 0 61.5 -26.5
t26.5 -61.5v-529zM209 509h75q17 0 27 10t10 27t-10 27t-27 10h-75q-16 0 -26.5 -10t-10.5 -27t10.5 -27t26.5 -10zM381 509h74q17 0 27 10t10 27t-10 27t-27 10h-74q-17 0 -27.5 -10t-10.5 -27q0 -16 12.5 -26.5t25.5 -10.5zM559 509h75q17 0 27 10t10 27q0 15 -12.5 26
t-24.5 11h-75q-16 0 -26.5 -10t-10.5 -27t10.5 -27t26.5 -10zM805 583h-74q-17 0 -27.5 -10t-10.5 -27t10.5 -27t27.5 -10h74q17 0 27 10t10 27t-10 27t-27 10zM723 248h-432q-16 0 -26.5 -10.5t-10.5 -27t10.5 -27t26.5 -10.5h432q17 0 27 10.5t10 27t-10 27t-27 10.5z
M321 382q0 17 -10 27t-27 10h-75q-16 0 -26.5 -10t-10.5 -27t10.5 -27t26.5 -10h75q15 0 26 12t11 25zM381 345h74q17 0 27 10t10 27t-10 27t-27 10h-74q-17 0 -27.5 -10t-10.5 -27q0 -11 13 -24t25 -13zM559 345h75q17 0 27 10t10 27t-10 27t-27 10h-75q-16 0 -26.5 -10
t-10.5 -27q0 -13 11 -25t26 -12zM805 419h-74q-17 0 -27.5 -10t-10.5 -27t10.5 -27t27.5 -10h74q17 0 27 10t10 27t-10 27t-27 10z" />
    <glyph glyph-name="tianjiazhaopian" unicode="&#xe610;" 
d="M842 603h-114l-60 97h-309l-61 -97h-114q-25 0 -52.5 -21t-27.5 -55v-386q0 -31 24 -54t51 -23h665q28 0 53 23q26 24 26 53v386q0 25 -22.5 51t-58.5 26zM872 134q0 -5 -7.5 -12t-11.5 -7h-683q-3 0 -9.5 6.5t-6.5 13.5v396q0 8 8.5 13t13.5 6h151l62 99h250l45 -72
l16 -27h151q15 0 21 -20v-396v0zM513.5 521q-75.5 0 -128.5 -50.5t-53 -122t53 -122.5t128.5 -51t128.5 51t53 122.5t-53 122t-128.5 50.5zM513.5 223q-54.5 0 -93.5 36.5t-39 88.5t39 88.5t93.5 36.5t93 -36.5t38.5 -88.5t-38.5 -88.5t-93 -36.5z" />
    <glyph glyph-name="zhuti" unicode="&#xe611;" 
d="M933 484v0q-10 33 -47 47q-65 25 -188 70q-81 108 -123 162q-22 28 -59 29q-34 0 -55 -28q-44 -55 -126 -163q-121 -44 -188 -69q-36 -14 -47 -47q-11 -35 10 -68q40 -61 112 -167q3 -131 5 -203q2 -42 29 -62q17 -13 40 -13q14 0 28 4q64 18 192 57q124 -39 192 -58
q4 -1 8 -1q12 0 21 7t12 18q3 13 -3.5 25t-19.5 16q-68 19 -199 60l-1 1q-10 3 -20 0q-67 -22 -200 -60q-6 -1 -10 -1q-1 4 -2 10q-4 112 -5 212q0 10 -6 18q-72 105 -116 174q-4 6 -3 10q1 2 7 5q68 26 194 71l2 1q9 3 15 11q84 110 131 170q1 2 3 2q4 0 6 -3
q86 -110 128 -169q6 -8 15 -11l4 -1q130 -48 193 -72q4 -1 8 -4q0 -1 -2 -4q-40 -61 -115 -175l-4 -5q-5 -8 -5 -18l-4 -131q0 -14 9.5 -24.5t23.5 -10.5v0h1q13 0 23 9.5t10 23.5l3 121l4 6q76 115 110 167q20 30 9 61z" />
    <glyph glyph-name="zan" unicode="&#xe612;" 
d="M274 -13q-22 15 -30 38l-124 286q-27 62 10 120q17 27 45 42.5t59 15.5h114q-21 48 -24.5 109.5t10.5 106.5q15 43 43.5 66t67.5 20h8q48 0 83 -35t35 -85v-48q0 -56 39.5 -96.5t94.5 -40.5h152q29 0 49.5 -20.5t20.5 -50.5v-378q0 -27 -18.5 -46t-45.5 -19h-110
q-27 0 -46.5 20t-19.5 48v377q-73 7 -125 60q-59 61 -59 146v48q0 21 -15 36t-35 15h-10q-31 2 -44 -39q-16 -55 -2.5 -119.5t36.5 -80.5q22 -14 14 -39q-3 -11 -12 -17.5t-20 -6.5l-181 -1q-30 0 -47 -26t-4 -55l124 -287q1 -4 5 -6.5t8 -2.5h288q14 0 24 -10t10 -24.5
t-10 -25t-24 -10.5h-288q-25 0 -46 15zM857 417h-102v-375h104z" />
    <glyph glyph-name="liulan" unicode="&#xe613;" 
d="M923 371v0l-2 -7v-1.5v-0.5q-1 -3 -3 -6q-56 -122 -167.5 -197.5t-236 -75.5t-236 76t-168.5 199q-1 1 -1 3q-2 3 -2 6v0q-1 3 -1 6l-1 6v6q1 6 1 9l2 7v1q1 3 2 5q57 123 168.5 198.5t236 75.5t236.5 -76t168 -199l2 -4v-0.5v-0.5q2 -5 2 -10q1 -2 1 -9q0 -4 -1 -11v0z
M869 384v1v0.5t-1 0.5q-50 108 -147.5 174.5t-206 66.5t-206 -66.5t-148.5 -175.5v-1v-0.5v-0.5v-1v0v-1v-0.5v-0.5l1 -1q50 -109 147.5 -175.5t206.5 -66.5q108 0 205.5 66.5t148.5 174.5v1v1v2v2v0zM515 246q-57 0 -97 40t-40 96t40 96t96.5 40t96.5 -40t40 -96t-40 -96
t-96 -40v0zM515 464q-34 0 -58 -24t-24 -58t24 -58t57.5 -24t57.5 24t24 58t-24 58t-57 24v0z" />
    <glyph glyph-name="pinglun" unicode="&#xe614;" 
d="M875 794h-721q-46 0 -78.5 -33t-32.5 -79v-608q0 -32 17.5 -57t46.5 -36q17 -7 35 -7q45 0 74 34l113 125q11 11 10 26.5t-12 26t-26.5 10t-26.5 -12.5l-114 -125q-11 -13 -26.5 -7t-15.5 22v609q0 15 10.5 26t25.5 11h721q15 0 25.5 -11t10.5 -26v-447q0 -15 -10.5 -26
t-25.5 -11h-387q-16 0 -26.5 -11t-10.5 -26.5t10.5 -26.5t26.5 -11h387q46 0 78.5 33t32.5 79v447q0 46 -32.5 79t-78.5 33zM466 457.5q0 -25.5 18 -44t44 -18.5t44 18.5t18 44t-18 43.5t-44 18t-44 -18t-18 -43.5zM714 457.5q0 -25.5 18 -44t44 -18.5t44 18.5t18 43.5v0
q0 26 -18 44t-44 18t-44 -18t-18 -43.5zM215 457.5q0 -25.5 18 -44t44 -18.5t44 18.5t18 44t-18 43.5t-44 18t-44 -18t-18 -43.5z" />
    <glyph glyph-name="fabu" unicode="&#xe615;" 
d="M364 263q-1 -2 -2 -3l-41 -153q-4 -15 6 -25q8 -8 19 -8q3 0 6 1l153 41v0v0q3 0 5 2l407 407q19 19 19 47q0 32 -24 56l-38 38q-24 24 -56 24q-28 0 -47 -19l-407 -407v-0.5v-0.5zM811 631q5 5 13 4.5t13 -6.5l38 -38q7 -6 7 -15q0 -6 -5 -11l-40 -40l-66 66zM730 550
l66 -67l-294 -293l-66 66zM404 215l56 -57l-77 -21zM903 487q-15 0 -25 -10t-10 -25v-380q0 -12 -8.5 -20t-20.5 -8h-642q-12 0 -20.5 8t-8.5 20v620q0 12 8.5 20t20.5 8h413q15 0 25.5 10.5t10.5 25.5t-10.5 25.5t-25.5 10.5h-417q-40 0 -68 -28t-28 -68v-628q0 -40 28 -68
t68 -28h650q40 0 68 28t28 68v384q0 15 -10.5 25t-25.5 10z" />
    <glyph glyph-name="sousuo_sousuo" unicode="&#xe625;" 
d="M1010 -40v0v0v0q14 -16 14 -35q0 -22 -15 -38q-15 -15 -37 -15h-1q-9 0 -17.5 3t-15.5 8l-6 5l-282 285q-102 -72 -228 -72q-12 0 -25 1t-26 3q-37 4 -84.5 21.5t-78.5 38.5q-80 51 -128 136q-23 39 -36 83t-16 90v24q0 34 5 68q5 30 20 70.5t31 67t44.5 58.5t53.5 51
q50 40 113 61q62 22 127 22q28 0 53 -3q67 -10 129 -42q26 -13 57.5 -37t50.5 -45q53 -56 81.5 -132.5t24.5 -155.5q-4 -131 -90 -236l283 -285h-1zM759 482v17q0 26 -7 61.5t-16 58.5q-15 41 -40 76t-59 63t-73 47q-27 12 -68 21t-72 9q-19 0 -38 -2q-5 0 -11 -1l-6 -1
q-31 -5 -70.5 -21t-65.5 -33q-26 -18 -54.5 -49t-44.5 -58q-42 -70 -46 -155.5t31 -159.5q13 -27 38 -60.5t49 -53.5q23 -20 60 -39.5t66 -27.5q73 -21 148 -8q39 7 75 22.5t68 39.5t57 54q26 30 43 65v0q14 27 24 66.5t12 68.5z" />
    <glyph glyph-name="pengyouquan" unicode="&#xe626;" horiz-adv-x="1026" 
d="M261 398q6 69 45.5 124.5t101.5 83.5q47 102 172 232q5 6 15 16l13 13q-47 9 -95 9q-112 0 -211.5 -47.5t-169.5 -129.5l20 -57q4 -16 12.5 -42.5t37 -92t59.5 -109.5v0zM365 171q-87 63 -102 169q-78 90 -138 290q-8 29 -13 44q-98 -132 -98 -298q0 -92 33 -178l58 -8
l15 -3t42 -7.5t60 -7.5t70 -4t73 3v0zM452 622q31 8 61 8q71 0 131 -37q114 19 302 -21q12 -3 30 -6q-45 108 -134.5 186.5t-203.5 107.5l-34 -39q-11 -11 -28.5 -29.5t-58 -71t-65.5 -98.5v0zM757 307q-24 -83 -94 -135q-41 -115 -207 -266q-16 -15 -24 -23q41 -6 81 -6
q176 0 312 109q-3 28 -3 29q-1 20 -3.5 52.5t-19 111t-42.5 128.5v0zM613 143q-48 -20 -100 -20q-53 0 -102 21q-114 -22 -308 16q-31 7 -44 9q48 -105 137.5 -179t203.5 -100l34 34q5 5 13.5 12.5t33 32t46 49.5t46.5 59.5t40 65.5v0zM683 564q39 -35 61.5 -84t22.5 -104
q0 -2 -1 -16q70 -103 85 -339q0 -7 1 -12q75 70 118 165t43 202q0 82 -26 160l-43 6q-16 4 -42.5 9.5t-96 12t-122.5 0.5z" />
    <glyph glyph-name="weibo" unicode="&#xe627;" horiz-adv-x="1179" 
d="M869 400q-20 4 -25.5 12t-1.5 14l4 6q2 3 4.5 8t7.5 20.5t5.5 29.5t-5.5 32.5t-21 32.5q-18 18 -47.5 24t-59 1.5t-56 -12t-43.5 -14.5l-17 -7q-13 -4 -21.5 -5.5t-13 0.5t-7 4t-2.5 9t1 12t3.5 16.5t3.5 17.5q0 20 -3 36.5t-14 34.5t-29.5 27.5t-52.5 9t-80 -15.5
q-45 -15 -92 -46t-82.5 -64t-64.5 -64t-44.5 -50.5t-14.5 -19.5q-27 -36 -45.5 -72t-26 -62t-10.5 -47.5t-2.5 -32l0.5 -10.5q7 -62 38 -111.5t73.5 -80t101 -51.5t111.5 -31t113 -15q97 -7 201.5 15.5t194.5 78.5t127 134q22 46 22.5 86t-13.5 65t-37.5 44.5t-43.5 28.5
t-36 12v0zM468 -3q-93 -4 -171.5 22t-124 75.5t-45.5 110.5t45.5 113t123.5 84t172 36t171.5 -18t123.5 -68t46 -106q0 -61 -45.5 -117t-124.5 -92t-171 -40v0v0zM430 356q-167 -19 -167 -197q-1 -2 -0.5 -6t3 -15t7 -21t15.5 -22t25 -20q54 -28 109.5 -29t100 20.5
t73.5 59.5q17 22 23.5 54t-2.5 65t-29.5 60.5t-62 42t-95.5 8.5v0zM382 110q-26 -3 -45 10.5t-19 35.5t17.5 41t43.5 22q30 3 48.5 -11.5t18.5 -37.5q0 -22 -18.5 -39.5t-45.5 -20.5v0v0zM494 204q-9 -7 -18.5 -6t-14.5 9t-3 18.5t11 17.5q11 7 20.5 6t14.5 -9t2 -18.5
t-12 -17.5v0v0zM961 476q12 0 20.5 7.5t10.5 18.5v3q16 142 -96 168q-39 8 -74 2q-13 0 -22 -9t-9 -22t9 -22t22 -9q41 8 64.5 1t33.5 -25t12 -36.5t0 -32.5l-2 -14q0 -12 9 -21t22 -9v0zM939 834q-66 16 -155 -1q-1 0 -2.5 -1t-2.5 -1l-1 -1q-14 -4 -23.5 -16t-9.5 -27
q0 -18 13.5 -31.5t31.5 -13.5q25 4 41 10q5 2 18 2t32 -2t42.5 -9.5t46.5 -19t46 -32.5t39 -48q35 -78 14 -148q-9 -22 -9 -43q0 -18 13 -29t32 -11t29.5 7t14.5 30v0q18 59 18.5 111t-13.5 91t-37 71t-54 54.5t-62 36.5t-62 21v0v0zM939 834z" />
    <glyph glyph-name="weixin" unicode="&#xe628;" horiz-adv-x="1192" 
d="M793 557q18 0 40 -3q-27 124 -145 206t-269 82q-111 0 -205 -46t-149 -126.5t-55 -176.5q0 -161 164 -276l-41 -123l143 72q7 -2 29 -6.5t30.5 -6t25 -4t30.5 -3.5t28 -1q18 0 39 2q-13 43 -13 86q0 88 46 162.5t126.5 118t175.5 43.5v0zM573 668q23 0 37 -14t14 -37.5
t-14 -37.5t-37 -14q-24 0 -43 14.5t-19 37t19 37t43 14.5zM286 565q-24 0 -42.5 14.5t-18.5 37t18.5 37t42.5 14.5q23 0 37.5 -14t14.5 -37.5t-14.5 -37.5t-37.5 -14zM1167 237q0 80 -48.5 149t-128.5 109t-171 40q-96 0 -176 -40t-126 -108.5t-46 -149t46 -149t126 -108.5
t176 -40q41 0 123 21l112 -62l-31 103q66 49 105 109t39 126zM706 289q-15 0 -28 12.5t-13 28t13 28.5t28 13q22 0 36.5 -12.5t14.5 -29t-14.5 -28.5t-36.5 -12zM931 289q-15 0 -27.5 12.5t-12.5 28t12.5 28.5t27.5 13q22 0 37 -12.5t15 -29t-14.5 -28.5t-37.5 -12z" />
    <glyph glyph-name="shebei" unicode="&#xe61b;" 
d="M228 -51h96q-7 -17 -43.5 -17.5t-52.5 17.5v0zM710 -52h94q-12 -17 -47.5 -16.5t-46.5 16.5v0zM702 35q-199 -1 -364 0q-42 0 -70.5 30t-26.5 71h561q-4 -46 -31 -73.5t-69 -27.5v0v0zM141 153v43h760v-43h-760v0zM422 561q-2 -3 -7 -5t-15 -4t-15 -4v70v67h75
q-31 -104 -38 -124v0zM214 218q26 122 31 148q2 8 16 19q15 13 96 78l4 3q27 9 36 22v43q-31 2 -41 16h95q-10 -15 -44 -16v-44v-0.5v-0.5v-1q67 21 74 22q22 5 40 1q9 -3 42.5 -10t54 -14t37.5 -18q18 -11 34 -27t37.5 -42.5t28.5 -34.5q12 -13 14 -31q1 -15 9 -113h-564v0
zM584 354q20 3 58 10t48 9q-88 51 -134 78q5 -18 14.5 -49.5t13.5 -47.5v0zM545 455q-4 -4 -109 -80q87 -13 138 -21q-4 12 -14 46.5t-15 54.5v0zM590 343q4 -6 78 -113q7 29 17.5 76.5t11.5 56.5q-58 -11 -107 -20v0zM660 225q-43 62 -79 113q-9 -14 -34.5 -52.5
t-39.5 -60.5h153v0zM572 343q-9 1 -60.5 9t-79.5 12q9 -19 20.5 -43.5t23 -49.5t20.5 -42q21 31 76 114v0zM487 226l-65 135q-14 -22 -85 -135h150v0zM412 364q-61 -11 -119 -21q20 -66 36 -113q12 20 39.5 64t43.5 70v0zM319 225q-7 20 -18.5 55.5t-16.5 52.5
q-34 -67 -55 -108h90v0zM256 360q-10 -46 -18 -81q32 42 35 56t-17 25v0zM331 427q-26 -21 -69 -55q21 -17 22 -17q9 11 25.5 34t24.5 34q-1 2 -3 4v0zM298 355q86 15 116 20q-33 65 -42 83q-11 -16 -35.5 -50t-38.5 -53v0zM383 459q6 -12 19.5 -38.5t21.5 -40.5
q18 13 51.5 37.5t49.5 35.5l-1 2.5t-1 3.5h-140v0zM491 499q-11 -1 -23 -4.5t-27.5 -9.5t-22.5 -8q0 -3 1 -6h107q1 3 3 6q-4 2 -12 9t-14.5 10.5t-11.5 2.5v0zM525 497q5 -11 12 -17.5t16.5 -8t15 -1.5t19 2t16.5 3q-59 17 -79 22v0zM641 460h-65q-2 -5 -2 -7
q16 -10 34.5 -21t41 -24t34.5 -21q-9 29 -28 61q-6 11 -15 12v0zM680 434l25 -57h26zM718 354q12 -25 42 -89q5 54 -2 69.5t-40 19.5v0zM705 354q-3 -16 -13 -60.5t-15 -67.5h89q-11 23 -31 65.5t-30 62.5v0zM952 125q0 -76 -42.5 -118t-118.5 -42q-277 -1 -554 0
q-77 0 -119 42.5t-42 119.5q-1 277 0 572q0 79 42.5 121t121.5 42q283 1 548 0q80 0 122 -42t42 -123v-285v-287v0v0zM910 335l-54 37q-2 4 -4 7v117q15 13 18 16q2 1 20 16v167h-32q-393 0 -437 -1q-116 -3 -194 41q-2 1 -5 2q-28 7 -17 39h27h530q45 1 81 -19
q8 -3 17.5 -5.5t23.5 -5t22 -3.5q-7 21 -8 22q-31 56 -103 56h-278h-278q-122 0 -122 -123v-569q0 -123 122 -123h383h178q47 1 77 26.5t32 68.5q1 35 1.5 72.5t0 88t-0.5 73.5v0z" />
    <glyph glyph-name="stl" unicode="&#xe61d;" 
d="M663 865l-2 -237h237zM606 574v307h-429q-27 0 -47 -19.5t-20 -46.5v-860q0 -28 20 -47t47 -19h670q27 0 47 19t20 47v619h-308zM383 104q-88 0 -107 67l-1 1v6q0 9 6 15.5t15 8.5q5 1 8 1q21 0 26 -17q10 -32 53 -32q22 0 35.5 8t13.5 22q0 12 -8 19.5t-36 13.5l-25 5
q-44 8 -63 26.5t-19 50.5q0 34 26.5 54.5t71.5 20.5q37 0 62 -15t35 -43v0q1 -5 1 -7q0 -18 -21 -24v0q-5 -1 -9 -1q-20 0 -25 17q-7 24 -42 24q-44 0 -44 -25q0 -11 6.5 -17t32.5 -12l26 -5q51 -11 68.5 -29.5t17.5 -51.5q0 -36 -29 -58.5t-75 -22.5zM662 116
q-22 -11 -47 -11q-33 0 -51 18.5t-18 52.5v141h-26q-11 0 -17 7t-6 18t6 18t17 7h26v45q0 11 7 18t20 7q12 0 19.5 -7t7.5 -18v-45h48q11 0 17.5 -7t6.5 -18t-6.5 -18t-17.5 -7h-48v-137q0 -23 18 -23q11 0 21 6l1 1q6 3 11 3q15 0 21 -16q3 -6 3 -13q0 -15 -13 -22z
M749 134q0 -12 -7 -18.5t-20 -6.5t-20 6.5t-7 18.5v308q0 12 7 18.5t20 6.5t20 -6.5t7 -18.5v-308z" />
    <glyph glyph-name="wenjian" unicode="&#xe61e;" 
d="M689 864l-2 -236h236zM632 573v307h-429q-28 0 -47.5 -19.5t-19.5 -46.5v-860q0 -27 19.5 -46.5t47.5 -19.5h669q28 0 47.5 19.5t19.5 46.5v619h-307zM692 89h-287q-55 0 -94 39t-39 94q0 51 34 88.5t86 44.5q20 40 59 64t87 24q60 0 106 -37.5t57 -94.5q42 -4 72 -36
t30 -75q0 -47 -32 -79t-79 -32z" />
    <glyph glyph-name="yunpingtaixiazai" unicode="&#xe61f;" horiz-adv-x="1025" 
d="M642 200q-9 9 -22.5 9t-23.5 -9l-49 -51v266q0 13 -9.5 22.5t-23.5 9.5h-10q-13 0 -22.5 -9.5t-9.5 -22.5v-270l-54 55q-10 9 -23 9t-23 -9l-7 -7q-10 -10 -10 -23.5t10 -22.5l118 -120q10 -10 24 -9q14 -1 24 9l118 120q10 9 10 22.5t-10 23.5l-7 7v0zM959 500
q-38 45 -89 62q-11 126 -98 215q-48 48 -110.5 75t-131.5 27q-103 0 -188 -58q-76 -50 -116 -131q-90 -15 -150 -80q-71 -76 -71 -181q0 -109 77 -186h-1q76 -78 183 -78v79q-76 0 -128 54q-54 54 -54 131q0 73 50 127q49 54 120 57q25 1 34 24q32 75 99 120q65 44 145 44
q109 0 187 -79q78 -80 78 -191q0 -14 9 -25t22 -13q45 -9 74 -43q29 -36 29 -81q0 -52 -37 -88q-35 -37 -86 -37h-13v-79h14q81 2 140 60q59 60 59 144q0 73 -47 131v0zM935 -87q0 -14 -9.5 -23.5t-23.5 -9.5h-794q-13 0 -22.5 9.5t-9.5 23.5v7q0 14 9.5 23.5t22.5 9.5h794
q14 0 23.5 -9.5t9.5 -23.5v-7z" />
    <glyph glyph-name="zhedie" unicode="&#xe622;" horiz-adv-x="1027" 
d="M514 -128q-104 0 -199 40.5t-163.5 109t-109 163.5t-40.5 199t40.5 199t109 163.5t163.5 109t199 40.5t199 -40.5t163.5 -109t109 -163.5t40.5 -199t-40.5 -199t-109 -163.5t-163.5 -109t-199 -40.5v0zM514 832q-91 0 -174 -35.5t-143 -95.5t-95.5 -143t-35.5 -174
t35.5 -174t95.5 -143t143 -95.5t174 -35.5t174 35.5t143 95.5t95.5 143t35.5 174t-35.5 174t-95.5 143t-143 95.5t-174 35.5v0zM542 239q-11 -11 -28 -8q-17 -3 -28 8l-245 245q-9 9 -9 22.5t9 23t22.5 9.5t22.5 -10l228 -228l228 228q9 10 22.5 10t23 -9.5t9.5 -23
t-10 -22.5l-245 -245v0z" />
    <glyph glyph-name="fenxiang" unicode="&#xe623;" 
d="M215 -16q-36 0 -61 25t-25 60v559q0 35 25 60.5t61 25.5h236q10 0 17.5 -7.5t7.5 -18.5t-7.5 -18.5t-17.5 -7.5h-232q-16 0 -27 -11t-11 -27v-550q0 -16 11 -27.5t27 -11.5h571q16 0 27.5 11.5t11.5 27.5v221q0 10 7.5 17.5t18 7.5t18 -7.5t7.5 -17.5v-226q0 -35 -25 -60
t-60 -25h-580zM364 123q-10 0 -18 8t-8 19q8 104 27 174q21 74 58 122q71 94 232 114h160l-151 152q-5 9 -5 15q0 11 8 19t19 8q7 0 12 -3l7 -6l207 -206l5 -6l-5 -6l-212 -211q-8 -3 -13 -3q-11 0 -19 8t-8 19q0 7 2 12l6 6l147 148h-159h-1q-71 -8 -117.5 -31.5
t-76.5 -65.5q-55 -78 -71 -265q-3 -8 -10 -14.5t-16 -6.5z" />
    <glyph glyph-name="baocun1" unicode="&#xe629;" 
d="M820 -72h-616q-63 0 -108 45t-45 108v606q0 63 45 108t108 45h616q63 0 108 -45t45 -108v-606q0 -63 -45 -108t-108 -45v0zM204 780q-38 0 -65.5 -27t-27.5 -66v-606q0 -39 27.5 -66t65.5 -27h616q38 0 65.5 27t27.5 66v606q0 39 -27.5 66t-65.5 27h-616v0zM807 383h-590
v457h590v-457v0zM277 442h470v338h-470v-338v0zM600 693h60v-199h-60v199v0zM600 693z" />
    <glyph glyph-name="you" unicode="&#xe62b;" 
d="M512 896q-139 0 -257 -68.5t-186.5 -186.5t-68.5 -257t68.5 -257t186.5 -186.5t257 -68.5t257 68.5t186.5 186.5t68.5 257t-68.5 257t-186.5 186.5t-257 68.5zM671 361l-272 -272q-10 -9 -23 -9t-22.5 9.5t-9.5 22.5t9 23l250 249l-250 249q-8 10 -8 22q0 14 9 23t23 9
q12 0 22 -8l272 -272q9 -10 9 -23t-9 -23z" />
    <glyph glyph-name="quxiaofenxiang" unicode="&#xe68a;" 
d="M512 -80q-93 0 -178 35t-151 101t-101.5 150.5t-35.5 177.5t35.5 177.5t101.5 150.5t151 101t178 35t178 -35t151 -101t101.5 -150.5t35.5 -177.5t-35.5 -177.5t-101.5 -150.5t-151 -101t-178 -35zM512 781q-80 0 -153 -30t-129.5 -86t-86.5 -128.5t-30 -152.5t30 -152.5
t86.5 -128.5t129.5 -86t153 -30t153 30t129.5 86t86.5 128.5t30 152.5t-30 152.5t-86.5 128.5t-129.5 86t-153 30zM512 781zM778 384q0 -14 -9.5 -23.5t-23.5 -9.5h-466q-14 0 -23.5 9.5t-9.5 23.5t9.5 23.5t23.5 9.5h466q14 0 23.5 -9.5t9.5 -23.5zM778 384z" />
    <glyph glyph-name="wodefenxiang" unicode="&#xe68b;" 
d="M422 842h142v-48h-142v48zM571 787h-157v62h157v-62zM429 802h127v32h-127v-32zM279 510h427v-47h-427v47zM714 455h-442v63h442v-63zM287 470h411v32h-411v-32zM745.5 -111q-98.5 0 -168 69.5t-69.5 168t69.5 168.5t168 70t168.5 -70t70 -168.5t-70 -168t-168.5 -69.5z
M746 303q-73 0 -125 -51.5t-52 -124.5t52 -125t125 -52t124.5 52t51.5 125t-51.5 124.5t-124.5 51.5zM881 77h-165v166h47v-119h118v-47zM889 69h-181v181h63v-118h118v-63zM723 85h151v32h-119v118h-32v-150zM522 -59h-361v0q-10 0 -17 7t-7 17v0v806v0q0 9 7 16t17 7v0
h114q28 -9 28 -47q0 -23 18 -35t36 -12l17 -1h237q3 0 7.5 0.5t16 3.5t21 8t17.5 16.5t9 26.5q3 31 28 40h114v0q10 0 17 -7t7 -16v-372q25 -10 47 -23v418q0 20 -13.5 34t-33.5 14h-142q-3 0 -8 0.5t-17 0t-21.5 -4.5t-17 -15.5t-7.5 -28.5q0 -40 -39 -47h-200
q-46 6 -46 47q0 26 -17.5 38t-35.5 11l-18 -1h-142q-19 0 -33 -14t-14 -34v-853q0 -19 14 -33t33 -14h435q-27 21 -50 47zM595 -114h-458q-22 0 -38.5 16.5t-16.5 38.5v853q0 23 16.5 39t38.5 16h142q6 1 13 1q32 0 49 -14.5t17 -41.5q0 -34 39 -39h198q32 6 32 39
q0 27 16.5 42t45.5 15q10 0 18 -2h141q23 0 39 -16t16 -39v-432l-12 7q-22 14 -46 23l-5 1v378q0 6 -4.5 11t-11.5 5h-112q-20 -8 -22 -34q-3 -32 -28 -46.5t-51 -14.5h-237h-4q-30 0 -52 13.5t-23 41.5q0 31 -22 40h-112q-7 0 -11.5 -5t-4.5 -11v-806q0 -6 4.5 -11t11.5 -5
h365l2 -3q22 -26 49 -46zM137 834q-16 0 -27.5 -11.5t-11.5 -28.5v-853q0 -16 11.5 -27.5t27.5 -11.5h413q-17 15 -31 32h-358q-13 0 -22 9t-9 22v806q0 13 9 22t22 9h115h1q33 -12 34 -55q0 -40 59 -40h4h237q3 0 7.5 0.5t14.5 3t18 7t15 14t8 22.5q4 37 34 47l1 1h115
q13 0 22.5 -9t9.5 -22v-367q16 -7 32 -15v405q0 17 -12 28.5t-28 11.5h-144q-7 1 -15 1q-47 0 -47 -41q0 -46 -45 -55h-1h-201q-52 7 -52 55q0 41 -51 41q-9 0 -11 -1h-2h-142zM553 344h-274v-47h231q19 26 43 47zM514 289h-242v63h301l-15 -14q-23 -20 -41 -46zM287 304
h219q13 17 28 32h-247v-32zM460 178h-181v-47h177q0 24 4 47zM463 123h-191v63h197l-1 -9q-4 -23 -5 -46v-8zM287 139h161q1 16 3 32h-164v-32z" />
  </font>
</defs>
</svg>
